HIERARCHY
ROOT Hips
{
  OFFSET 40.9192 92.6879 18.85
  CHANNELS 6 Xposition Yposition Zposition Zrotation Xrotation Yrotation
  JOINT LeftUpLeg
  {
    OFFSET 8.64259 1.95398 -2.38835
    CHANNELS 3 Zrotation Xrotation Yrotation
    JOINT LeftLeg
    {
      OFFSET 43.7702 0 0
      CHANNELS 3 Zrotation Xrotation Yrotation
      JOINT LeftFoot
      {
        OFFSET 40.6238 0 0
        CHANNELS 3 Zrotation Xrotation Yrotation
        JOINT LeftToeBase
        {
          OFFSET 12.7242 0 0
          CHANNELS 3 Zrotation Xrotation Yrotation
          End Site
          {
            OFFSET 0 0 0
          }
        }
      }
    }
  }
  JOINT RightUpLeg
  {
    OFFSET -8.2249 1.95398 -2.59336
    CHANNELS 3 Zrotation Xrotation Yrotation
    JOINT RightLeg
    {
      OFFSET 43.5653 0 0
      CHANNELS 3 Zrotation Xrotation Yrotation
      JOINT RightFoot
      {
        OFFSET 40.6238 0 0
        CHANNELS 3 Zrotation Xrotation Yrotation
        JOINT RightToeBase
        {
          OFFSET 12.7242 0 0
          CHANNELS 3 Zrotation Xrotation Yrotation
          End Site
          {
            OFFSET 0 0 0
          }
        }
      }
    }
  }
  JOINT Spine
  {
    OFFSET 0.165834 0.87714 6.61349
    CHANNELS 3 Zrotation Xrotation Yrotation
    JOINT Spine1
    {
      OFFSET 7.38963 1.71661e-005 0
      CHANNELS 3 Zrotation Xrotation Yrotation
      JOINT Spine2
      {
        OFFSET 11.9445 1.14441e-005 0
        CHANNELS 3 Zrotation Xrotation Yrotation
        JOINT Spine3
        {
          OFFSET 14.7254 4.19617e-005 0
          CHANNELS 3 Zrotation Xrotation Yrotation
          JOINT Spine4
          {
            OFFSET 10.9679 0 0
            CHANNELS 3 Zrotation Xrotation Yrotation
            JOINT RightShoulder
            {
              OFFSET 2.46616 -1.6653 3.69651
              CHANNELS 3 Zrotation Xrotation Yrotation
              JOINT RightArm
              {
                OFFSET 13.0012 0 0
                CHANNELS 3 Zrotation Xrotation Yrotation
                JOINT RightForeArm
                {
                  OFFSET 28.7848 1.52588e-005 0
                  CHANNELS 3 Zrotation Xrotation Yrotation
                  JOINT RightHand
                  {
                    OFFSET 26.5688 1.52588e-005 0
                    CHANNELS 3 Zrotation Xrotation Yrotation
                    End Site
                    {
                      OFFSET 0 0 0
                    }
                  }
                }
              }
            }
            JOINT LeftShoulder
            {
              OFFSET 2.38034 -1.29275 -3.7523
              CHANNELS 3 Zrotation Xrotation Yrotation
              JOINT LeftArm
              {
                OFFSET 16.3182 6.10351e-005 0
                CHANNELS 3 Zrotation Xrotation Yrotation
                JOINT LeftForeArm
                {
                  OFFSET 27.0901 0 0
                  CHANNELS 3 Zrotation Xrotation Yrotation
                  JOINT LeftHand
                  {
                    OFFSET 24.5451 1.52588e-005 0
                    CHANNELS 3 Zrotation Xrotation Yrotation
                    End Site
                    {
                      OFFSET 0 0 0
                    }
                  }
                }
              }
            }
            JOINT Neck
            {
              OFFSET 5.0226 -0.0266342 0
              CHANNELS 3 Zrotation Xrotation Yrotation
              JOINT Head
              {
                OFFSET 6.69363 2.86102e-005 0
                CHANNELS 3 Zrotation Xrotation Yrotation
                End Site
                {
                  OFFSET 0 0 0
                }
              }
            }
          }
        }
      }
    }
  }
}
MOTION
Frames:	7
Frame Time:	0.0416667
38.6014 95.366 17.5952 94.6164 -40.186 92.6323 -170.168 12.9741 93.527 -27.4749 8.21008 -2.51584 64.7732 4.03894 3.04192 34.3034 4.3438 0.229631 177.933 15.0006 90.08 -36.5995 -5.30651 -4.02001 71.4968 -6.22103 -3.18004 36.1971 0.367783 -6.05932 0.00746607 8.0027 -89.987 10.8685 0.0209466 0.0239366 -0.80247 0.0220021 0.0229897 -23.3376 0.0127829 0.0291258 -3.32498 0.0127946 0.0291277 93.7809 -44.6345 -95.9343 34.6039 -7.15252 -1.47074 -7.09781 -21.4664 -42.118 -11.4155 -1.23986 5.58756 -96.4128 -48.0453 68.6001 -22.6954 9.01998 3.41581 4.03113 5.54931 -37.4377 10.5263 0.492895 0.787841 8.86461 -3.93779 5.97759 1.50049 -5.39996 -7.28574 
39.2881 95.4237 17.4745 94.67 -39.7447 92.7513 -170.381 12.5183 93.219 -27.4097 7.69929 -2.34881 65.4621 4.40947 2.9097 34.0457 4.15143 -0.181771 177.631 13.1842 90.2851 -32.5255 -8.07931 -3.72689 71.3007 -6.10774 -3.14574 35.5191 0.348096 -7.63811 0.0585887 7.93064 -89.7586 11.0115 0.228475 0.458567 -0.659548 0.248452 0.448062 -23.1941 0.0800954 0.50604 -3.18141 0.0801124 0.506037 95.6183 -49.6832 -92.1958 31.3015 -6.49016 -1.54529 -7.42485 -26.6048 -37.4968 -6.51421 -0.91361 5.36458 -94.9527 -46.1948 70.215 -23.1587 8.15747 2.54554 3.76809 4.78337 -39.0262 16.954 1.33513 4.0749 8.55085 -4.0241 1.9412 1.84553 -4.56248 -4.28622 
40.0455 95.7034 17.8202 94.4057 -39.101 92.4087 -170.626 11.32 92.832 -25.6951 8.19312 -2.16474 65.2624 4.49727 3.04541 33.5553 3.76065 0.043044 177.459 10.9333 90.4217 -27.8745 -7.10666 -3.78864 69.3025 -5.10388 -2.70784 29.727 0.330436 -4.82311 0.122987 7.77671 -89.6969 11.3191 0.385843 0.564792 -0.351862 0.410344 0.547259 -22.8862 0.198263 0.654644 -2.87355 0.198265 0.65464 94.8032 -49.2984 -93.5284 31.3764 -5.54877 2.18235 -12.4029 -32.9041 -39.2209 0.65725 -0.621339 6.6449 -94.8982 -46.9664 70.5402 -22.8397 6.42792 3.39493 2.22275 1.33326 -41.3126 17.8223 1.25085 3.14177 8.2434 -4.64589 4.00804 1.44144 -5.6578 -6.55224 
40.7496 96.3386 18.1812 94.5461 -38.3829 92.7795 -170.761 9.21148 93.0577 -22.53 8.66273 -1.87194 64.4051 3.72154 2.47187 33.4113 3.64477 0.125303 176.897 7.85063 90.3235 -23.3614 -6.94368 -3.48715 68.2827 -4.7047 -2.53484 29.8647 0.244034 -3.47776 0.130962 7.69178 -89.7247 11.4893 0.389298 0.508743 -0.181725 0.411327 0.491109 -22.7163 0.218395 0.60222 -2.70363 0.218403 0.60222 94.8335 -48.5593 -93.5888 31.7896 -6.17828 4.93642 -12.726 -33.3887 -39.7957 2.43549 -0.498343 6.98352 -94.5728 -48.0148 71.3527 -23.2148 5.66911 4.67637 3.39019 1.85589 -43.3407 17.3996 1.33624 3.80583 8.60845 -4.98724 4.77063 0.335319 -6.08733 -6.57895 
41.4076 96.9203 18.4836 93.797 -38.4702 92.3783 -170.527 6.91498 93.1922 -17.8303 8.39865 -2.09083 64.0824 3.01558 1.30459 32.0658 2.55197 0.725421 175.317 5.66003 89.4992 -18.5721 -9.29312 -2.6108 66.818 -3.87831 -2.13771 28.9945 0.246415 -3.7694 0.152823 7.54309 -89.7575 11.7867 0.417928 0.439162 0.115763 0.436862 0.420334 -22.4191 0.266634 0.544459 -2.40641 0.266613 0.544453 95.305 -48.0355 -92.9189 32.1218 -6.70275 7.21453 -10.1663 -29.2742 -40.4454 0.729678 -0.518756 3.21541 -93.814 -47.9777 72.4874 -25.3974 5.94469 5.95415 4.39265 3.07085 -43.1307 17.9467 1.45227 4.22375 9.39575 -5.05461 5.26256 -1.30729 -6.17634 -6.33649 
41.6556 97.2328 18.809 92.9439 -38.6239 91.4745 -170.152 5.28512 93.2046 -13.6197 10.0315 -2.75741 63.0096 1.86015 2.41484 31.1179 1.75233 1.3636 174.497 4.25428 88.9234 -14.8767 -10.1842 -2.21327 66.372 -3.6309 -2.00867 27.5757 0.206081 -3.55967 0.121362 7.4472 -89.7589 11.9786 0.355081 0.442413 0.307623 0.374191 0.426353 -22.2271 0.205679 0.528671 -2.21444 0.205688 0.528672 95.2594 -47.505 -93.0667 32.677 -6.73799 8.45207 -10.4381 -27.1001 -42.3548 -2.3637 -0.662324 4.59464 -94.0128 -48.2302 72.2603 -26.7495 7.99985 6.68167 2.79926 2.70854 -40.02 15.9574 1.13744 3.23112 10.2718 -4.71034 5.94155 -1.76662 -5.98352 -6.25978 
41.944 97.3382 19.0256 92.1319 -38.7599 90.83 -170.048 4.29987 93.1866 -11.1549 8.83487 -2.87696 62.3859 0.625052 0.366618 31.751 2.264 1.33922 173.653 3.52387 88.3613 -12.4631 -11.3595 -1.61444 65.9153 -3.41028 -1.89976 28.1027 0.160029 -2.70965 0.063864 7.37224 -89.7912 12.129 0.225733 0.391966 0.458004 0.24278 0.381639 -22.0767 0.0974973 0.441689 -2.06408 0.0975123 0.441686 95.4908 -47.6454 -92.6778 32.6883 -6.68901 7.61734 -10.6426 -26.041 -42.8317 -5.12219 -0.778707 4.20916 -95.1541 -49.0013 70.7802 -27.0421 10.0848 6.90553 3.30684 5.90131 -35.7483 12.3576 0.845596 2.87263 10.1726 -4.08069 6.24652 -1.56561 -5.39038 -4.7716 
